<?xml version="1.0" standalone="no"?>
<!DOCTYPE svg PUBLIC "-//W3C//DTD SVG 20010904//EN"
 "http://www.w3.org/TR/2001/REC-SVG-20010904/DTD/svg10.dtd">
<svg version="1.0" xmlns="http://www.w3.org/2000/svg"
 width="960.000000pt" height="399.000000pt" viewBox="0 0 960.000000 399.000000"
 preserveAspectRatio="xMidYMid meet">

<g transform="translate(0.000000,399.000000) scale(0.100000,-0.100000)"
fill="#000000" stroke="none">
<path d="M0 1995 l0 -1995 1703 0 c1311 0 1706 3 1715 12 9 9 12 9 12 -1 0 -7
5 -9 10 -6 6 4 8 15 5 25 -7 22 5 32 24 21 9 -6 10 -11 2 -15 -6 -4 -11 -14
-11 -22 0 -10 14 -14 58 -14 70 0 79 6 84 50 3 32 5 35 35 34 33 -2 49 21 32
47 -7 12 -9 11 -10 -1 -1 -8 -1 -18 0 -23 0 -4 -4 -7 -9 -7 -6 0 -10 14 -10
31 0 23 4 30 14 26 25 -10 71 8 68 26 -2 10 4 17 12 17 8 0 17 6 19 13 3 7 6
5 6 -6 1 -10 7 -17 14 -16 24 3 62 -3 49 -8 -6 -2 -9 -9 -6 -15 3 -5 -4 -12
-15 -15 -17 -4 -19 -8 -10 -19 9 -11 9 -14 0 -14 -9 0 -8 -4 1 -13 7 -8 20
-12 30 -9 14 3 18 15 18 48 0 31 4 44 14 44 8 0 16 7 20 15 4 11 16 14 41 12
20 -3 38 -1 41 4 2 4 11 6 19 2 8 -3 15 0 15 5 0 6 -8 13 -17 15 -10 3 -3 5
15 6 27 1 32 4 28 18 -3 10 -1 25 4 33 5 8 10 11 10 5 0 -5 4 -4 9 4 13 21 24
-77 16 -143 -4 -31 -11 -56 -15 -56 -13 0 -18 -84 -6 -93 6 -5 1 -6 -11 -2
-12 3 -24 1 -28 -5 -4 -7 24 -10 84 -10 l91 0 0 26 c0 22 2 24 15 14 8 -6 22
-10 32 -7 16 4 15 6 -4 12 -13 4 -23 11 -23 15 0 12 30 16 103 14 38 -1 66 0
63 3 -3 3 -1 14 5 24 8 16 6 19 -18 20 -15 1 -32 1 -36 0 -5 -1 -5 4 -2 10 4
6 20 9 36 5 16 -3 29 -1 29 4 0 10 -27 15 -62 12 -10 -1 -18 3 -18 9 0 7 16 8
45 3 41 -6 45 -5 45 15 0 25 -17 33 -68 35 -34 1 -37 -1 -43 -37 -3 -21 -2
-40 2 -43 14 -8 -2 -34 -22 -34 -13 0 -19 7 -19 21 0 11 3 18 8 16 4 -3 8 15
10 39 2 36 0 44 -14 44 -15 0 -16 8 -11 63 3 35 7 70 9 78 2 10 -9 15 -40 17
-43 3 -43 3 -40 40 3 35 6 38 48 48 27 6 39 13 30 17 -14 5 -5 7 49 11 8 1 16
7 19 14 2 6 15 12 28 12 14 0 24 6 24 14 0 7 16 24 35 37 19 13 35 29 35 35 0
6 11 19 24 30 14 10 23 21 20 26 -8 12 20 10 33 -3 8 -8 17 -8 33 1 12 6 24 9
27 6 4 -3 13 0 21 6 17 14 84 11 94 -5 5 -8 121 -14 138 -7 3 2 32 4 65 5 68
3 105 12 105 26 0 5 -8 9 -18 9 -24 0 -32 8 -25 26 10 26 41 16 48 -15 6 -29
28 -46 46 -35 5 3 9 0 9 -5 0 -6 9 -11 21 -11 14 0 19 5 16 14 -4 10 0 12 14
9 10 -3 19 -9 19 -14 0 -15 40 -10 46 6 9 22 16 19 47 -19 23 -30 25 -38 16
-59 -8 -18 -17 -23 -33 -20 -20 5 -20 5 -2 -9 13 -11 16 -17 7 -22 -6 -4 -9
-12 -6 -17 4 -5 1 -9 -5 -9 -6 0 -8 -5 -5 -10 3 -6 -3 -10 -14 -10 -15 0 -19
-6 -16 -27 1 -15 8 -29 14 -31 6 -2 11 -10 11 -17 0 -7 6 -15 14 -18 8 -3 12
-14 10 -24 -4 -15 0 -19 23 -18 23 0 28 -4 26 -23 -2 -18 2 -22 27 -22 22 0
33 -6 40 -22 5 -13 9 -17 9 -8 1 8 10 0 21 -17 11 -18 26 -33 34 -33 16 0 16
-16 -1 -45 l-12 -20 -15 20 c-14 18 -15 18 -16 3 0 -10 5 -18 11 -18 6 0 9 -6
6 -12 -2 -7 10 -19 26 -26 25 -10 32 -10 39 0 6 10 10 10 17 -1 6 -9 32 -14
77 -16 77 -3 124 -13 124 -26 0 -5 -19 -9 -42 -10 l-43 -1 45 -15 c55 -19 52
-17 54 -45 l1 -23 1978 -3 1977 -2 0 1965 0 1966 -30 -23 c-16 -12 -32 -30
-36 -40 -3 -10 -10 -18 -15 -18 -18 0 -25 -3 -76 -36 -28 -18 -53 -28 -55 -23
-2 7 -13 7 -31 0 -36 -14 -60 -14 -52 -1 3 6 1 10 -5 10 -6 0 -18 7 -26 15
-19 18 -34 19 -34 3 0 -17 15 -40 26 -40 5 0 16 -4 24 -10 12 -8 12 -9 -2 -4
-10 3 -20 1 -23 -4 -3 -5 3 -10 12 -12 15 -3 14 -5 -5 -10 -18 -5 -23 -1 -28
20 -12 51 -45 112 -60 112 -8 0 -17 7 -20 15 -4 8 -16 15 -28 15 -20 0 -46 37
-46 66 0 25 -47 26 -97 1 -26 -12 -45 -1 -23 13 11 7 5 10 -21 10 -25 0 -45
-8 -65 -26 -16 -14 -47 -34 -69 -45 -58 -28 -104 -62 -105 -76 0 -7 -6 -13
-13 -13 -16 0 -68 -56 -87 -92 -16 -32 -31 -37 -23 -8 3 11 0 20 -6 20 -6 0
-11 -12 -10 -27 2 -34 -57 -153 -75 -153 -8 0 -16 -13 -19 -29 -7 -34 -35 -71
-54 -71 -7 0 -10 -7 -7 -15 4 -8 1 -15 -5 -15 -6 0 -17 -11 -23 -25 -8 -18
-19 -25 -40 -25 -18 0 -28 -5 -28 -14 0 -8 -4 -18 -10 -21 -6 -4 -8 7 -4 27
l5 33 -21 -38 c-17 -31 -25 -36 -44 -31 -13 3 -27 1 -30 -5 -4 -7 1 -11 13
-11 12 0 21 -5 21 -11 0 -5 -8 -9 -17 -8 -32 3 -44 -1 -38 -11 3 -5 0 -10 -8
-10 -20 0 -26 9 -20 30 3 12 10 17 21 12 14 -5 14 -3 -2 13 -18 18 -18 19 0
32 10 7 13 13 8 13 -6 0 -15 -5 -21 -11 -14 -14 -34 -3 -27 15 3 7 -2 16 -10
19 -11 4 -14 -1 -12 -19 2 -13 6 -27 9 -31 12 -11 7 -43 -7 -49 -13 -5 -14
-43 -2 -63 4 -6 -2 -18 -14 -28 -11 -10 -29 -26 -40 -36 -12 -10 -25 -15 -30
-12 -14 9 -12 42 3 48 6 3 2 6 -9 6 -16 1 -23 9 -28 31 -3 17 -9 30 -13 30
-13 0 -12 -54 0 -62 8 -5 6 -8 -5 -8 -13 0 -18 -8 -18 -28 0 -31 -27 -62 -54
-62 -9 0 -22 -12 -28 -27 l-12 -28 -4 39 c-4 42 -32 97 -32 63 0 -13 -6 -16
-23 -12 -15 4 -30 -1 -44 -15 -13 -11 -25 -20 -28 -20 -21 1 -25 -1 -20 -10 3
-5 -1 -10 -9 -10 -9 0 -16 -6 -16 -12 0 -9 -4 -8 -10 2 -8 13 -10 12 -10 -2 0
-21 -11 -23 -27 -7 -8 8 -19 7 -41 -3 -27 -14 -30 -13 -41 3 -18 29 -48 24
-54 -10 -4 -19 -16 -33 -39 -44 -18 -9 -41 -25 -50 -36 -10 -12 -29 -21 -42
-21 -13 0 -26 -6 -29 -12 -3 -7 -31 -31 -63 -54 -44 -31 -64 -39 -79 -33 -11
4 -29 8 -40 8 -19 0 -19 0 -2 -13 22 -17 22 -23 -5 -37 -18 -10 -20 -9 -14 7
5 17 5 17 -6 3 -7 -8 -38 -27 -68 -41 -30 -15 -72 -38 -93 -52 -21 -15 -36
-22 -32 -16 8 13 -2 12 -45 -3 -52 -18 -129 -67 -140 -87 -5 -10 -22 -21 -37
-25 -15 -3 -31 -12 -35 -18 -5 -9 -10 -9 -19 0 -9 9 -21 7 -53 -9 -89 -43
-111 -58 -108 -72 1 -8 -2 -17 -8 -21 -5 -3 -10 1 -10 9 0 10 -6 13 -16 9 -11
-4 -12 -8 -4 -13 17 -10 2 -33 -17 -26 -8 3 -29 -4 -46 -16 -18 -13 -34 -22
-37 -21 -12 5 -50 -10 -50 -21 0 -6 -4 -5 -9 3 -12 18 -31 5 -31 -22 -1 -21
-1 -21 -11 -3 -11 17 -12 17 -23 -5 -9 -18 -20 -24 -44 -23 -26 1 -34 -4 -38
-23 -5 -19 -9 -21 -20 -12 -10 8 -14 8 -14 0 0 -6 -3 -10 -7 -9 -5 1 -34 -15
-66 -35 -31 -21 -62 -35 -67 -32 -6 3 -10 -1 -10 -10 0 -9 -4 -14 -9 -10 -6 3
-13 -1 -18 -8 -4 -8 -42 -30 -84 -50 -42 -19 -81 -43 -87 -53 -8 -15 -13 -16
-40 -5 -23 10 -35 10 -51 1 -29 -15 -27 -17 15 -12 28 3 35 1 32 -9 -3 -8 -12
-13 -21 -13 -9 1 -14 -2 -11 -7 3 -5 -4 -9 -14 -9 -11 0 -23 8 -26 17 -4 10
-10 13 -14 8 -4 -6 -13 -11 -21 -13 -12 -3 -12 -1 0 14 13 16 12 16 -8 5 -13
-6 -23 -9 -23 -7 0 3 -11 1 -24 -4 -18 -7 -28 -4 -44 10 -17 16 -22 17 -32 5
-12 -14 3 -31 19 -20 5 3 17 -2 25 -11 9 -8 16 -11 16 -6 0 5 14 7 30 3 17 -3
31 -9 30 -13 0 -5 0 -12 0 -17 0 -5 -8 -7 -18 -5 -9 3 -28 1 -42 -5 -14 -5
-19 -10 -11 -10 15 -1 -67 -71 -83 -71 -5 0 1 11 14 25 16 17 19 25 9 25 -10
1 -8 5 5 15 11 8 14 15 7 15 -7 0 -10 4 -6 9 11 19 -13 20 -35 1 -23 -20 -34
-24 -57 -21 -7 1 -13 -5 -13 -14 0 -8 -7 -15 -16 -15 -10 0 -14 6 -10 15 3 9
0 15 -9 15 -22 0 -19 -7 16 -41 30 -29 30 -31 13 -44 -11 -8 -24 -15 -30 -15
-6 0 -14 -13 -17 -29 -6 -29 -7 -29 -59 -25 -51 5 -52 5 -35 -14 25 -28 21
-35 -18 -30 -24 3 -35 0 -35 -9 0 -7 3 -12 8 -10 4 1 7 -2 7 -8 0 -5 -8 -10
-18 -9 -12 0 -16 -4 -12 -14 6 -16 -16 -37 -53 -52 -13 -6 -21 -14 -18 -19 4
-5 -3 -7 -14 -4 -11 3 -20 1 -20 -5 0 -17 24 -20 40 -6 16 14 60 8 60 -7 0 -5
7 -9 15 -9 17 0 20 -16 5 -25 -17 -10 -11 -25 10 -25 11 0 20 -6 20 -14 0 -8
5 -16 11 -18 6 -2 0 -15 -14 -30 -13 -14 -27 -33 -30 -42 -7 -19 -28 -22 -24
-3 2 12 -21 14 -73 6 -21 -3 -25 0 -22 18 3 21 1 22 -27 12 -17 -6 -31 -18
-31 -26 0 -8 -3 -12 -7 -10 -5 3 -14 -1 -21 -9 -11 -12 -9 -14 13 -14 14 0 24
-4 21 -9 -10 -15 -51 -18 -64 -5 -7 8 -19 11 -27 8 -9 -4 -15 0 -15 10 0 9 3
15 8 14 19 -4 63 15 54 24 -12 12 -42 16 -195 23 -127 5 -153 3 -141 -16 4 -6
11 -6 20 2 11 9 17 9 28 0 8 -6 18 -11 22 -10 5 1 18 1 29 0 18 -1 18 -2 -3
-17 -13 -9 -21 -22 -18 -30 3 -8 -10 -3 -29 12 -19 14 -35 22 -35 18 0 -5 -9
2 -20 16 -13 17 -20 20 -20 10 -1 -12 -4 -11 -15 4 -10 13 -28 19 -62 20 -40
1 -53 6 -76 31 -15 17 -35 43 -43 58 -8 15 -19 25 -24 22 -5 -3 -12 0 -17 8
-9 13 -63 42 -75 39 -5 -1 -8 5 -8 14 0 8 -4 12 -10 9 -5 -3 -10 -1 -10 4 0 6
-3 10 -7 10 -23 -4 -41 4 -67 26 -26 22 -28 28 -17 48 8 15 22 22 42 23 40 2
52 15 40 45 -8 21 -10 21 -10 4 -1 -12 -13 4 -32 40 -18 33 -38 71 -45 85 -8
14 -14 29 -14 33 0 5 -7 15 -15 23 -13 14 -15 13 -15 -6 0 -12 -4 -18 -10 -15
-6 4 -10 -8 -10 -29 0 -20 5 -36 10 -36 6 0 10 -15 10 -33 0 -18 5 -38 10 -43
7 -7 0 -17 -19 -32 -18 -13 -32 -18 -36 -12 -8 13 3 30 20 30 9 0 12 6 8 17
-4 9 -8 12 -10 6 -5 -15 -55 -1 -61 16 -3 8 0 11 7 7 7 -5 11 1 11 13 0 23
-25 29 -33 8 -3 -8 -1 -20 3 -27 5 -8 5 -21 1 -29 -5 -9 -6 -22 -4 -28 3 -7
-1 -13 -7 -13 -7 0 -10 8 -7 20 3 11 1 20 -4 20 -5 0 -9 -6 -9 -12 0 -9 -3 -8
-9 2 -6 8 -7 18 -4 24 4 5 -1 7 -11 3 -10 -4 -24 -1 -32 7 -20 20 -18 26 10
26 14 0 28 5 31 10 4 6 3 9 -2 8 -18 -5 -83 14 -78 23 4 5 -3 9 -13 9 -11 0
-23 -8 -26 -17 -6 -14 -9 -15 -16 -4 -4 8 -15 11 -24 8 -10 -4 -16 -1 -16 8 0
8 -5 15 -10 15 -6 0 -24 14 -40 30 -17 17 -35 28 -40 25 -6 -3 -10 4 -11 17 0
13 -3 17 -6 11 -8 -21 -23 -15 -23 10 0 17 -2 19 -10 7 -8 -12 -13 -11 -33 8
-19 18 -26 20 -30 10 -3 -7 -6 2 -6 20 -1 19 -5 31 -11 27 -5 -3 -10 1 -10 10
0 12 -4 14 -19 5 -14 -7 -22 -7 -26 0 -4 6 -11 8 -16 5 -5 -4 -12 0 -15 9 -3
8 -17 22 -31 31 -14 10 -23 12 -19 7 11 -18 -16 -26 -29 -9 -7 10 -17 17 -22
17 -6 0 -14 15 -17 33 -3 17 -13 46 -22 62 -9 17 -22 59 -29 95 -35 162 -50
193 -99 206 -26 6 -55 38 -60 66 -5 23 -41 93 -54 103 -7 6 -14 21 -17 34 -4
24 -12 35 -59 87 -57 62 -69 153 -51 358 4 51 2 74 -9 90 -8 12 -16 33 -18 47
-2 17 -10 25 -28 28 -31 4 -40 17 -40 56 0 37 -16 55 -47 55 -13 0 -23 5 -23
12 0 10 -39 99 -63 143 -6 11 -15 29 -21 40 -13 25 -30 46 -78 96 -21 21 -38
42 -38 47 0 5 -8 19 -19 30 l-18 22 -1302 0 -1301 0 0 -1995z m1420 1895 c0
-5 -2 -10 -4 -10 -3 0 -8 5 -11 10 -3 6 -1 10 4 10 6 0 11 -4 11 -10z m7610
-30 c0 -5 -4 -10 -9 -10 -6 0 -13 5 -16 10 -3 6 1 10 9 10 9 0 16 -4 16 -10z
m-7610 -25 c0 -8 -4 -15 -9 -15 -5 0 -11 7 -15 15 -3 9 0 15 9 15 8 0 15 -7
15 -15z m7730 5 c0 -5 -2 -10 -4 -10 -3 0 -8 5 -11 10 -3 6 -1 10 4 10 6 0 11
-4 11 -10z m-306 -82 c-3 -4 -11 -8 -17 -8 -7 0 -6 4 3 10 12 8 12 10 -5 10
-16 0 -17 2 -5 10 15 9 33 -7 24 -22z m-7409 8 c19 -13 17 -15 -19 -21 -37 -7
-63 6 -50 27 8 13 48 9 69 -6z m7925 3 c0 -5 -4 -7 -10 -4 -5 3 -10 1 -10 -4
0 -6 -5 -11 -11 -11 -8 0 -8 5 1 15 14 17 30 20 30 4z m-570 -9 c0 -5 -7 -10
-16 -10 -8 0 -12 5 -9 10 3 6 10 10 16 10 5 0 9 -4 9 -10z m-7445 -44 c-14
-21 -19 -23 -45 -13 -34 13 -29 31 6 23 14 -4 24 -2 24 4 0 5 7 10 15 10 14 0
14 -3 0 -24z m8206 -29 l-23 -22 17 28 c10 15 20 25 23 22 3 -3 -5 -16 -17
-28z m-891 -47 c0 -5 -5 -10 -11 -10 -5 0 -7 5 -4 10 3 6 8 10 11 10 2 0 4 -4
4 -10z m923 -7 c-3 -10 -13 -27 -21 -38 -13 -19 -14 -19 -7 5 7 24 23 50 31
50 2 0 1 -8 -3 -17z m-8431 -65 c-12 -12 -35 -1 -27 12 3 5 13 6 21 3 10 -4
12 -9 6 -15z m171 -34 c6 -6 -16 -34 -26 -34 -3 0 -3 9 0 20 5 20 15 25 26 14z
m-83 -24 c0 -5 -10 -15 -22 -21 l-23 -12 20 21 c23 24 25 25 25 12z m208 -36
c32 -9 27 -19 -20 -44 -24 -12 -46 -27 -50 -34 -5 -7 -8 -6 -8 5 0 8 5 20 12
27 7 7 9 12 5 12 -4 0 -3 9 3 20 11 21 21 23 58 14z m79 -40 c-3 -3 -12 -4
-19 -1 -8 3 -5 6 6 6 11 1 17 -2 13 -5z m-242 -24 c3 -5 1 -10 -4 -10 -6 0
-11 5 -11 10 0 6 2 10 4 10 3 0 8 -4 11 -10z m7555 -4 c0 -23 -16 -36 -44 -35
-30 1 -30 1 -6 9 14 4 19 8 13 9 -24 2 -13 21 12 21 14 0 25 -2 25 -4z m-7220
-46 c0 -5 -4 -10 -9 -10 -6 0 -13 5 -16 10 -3 6 1 10 9 10 9 0 16 -4 16 -10z
m7115 -8 c-3 -3 -11 0 -18 7 -9 10 -8 11 6 5 10 -3 15 -9 12 -12z m-7190 -12
c-3 -5 -13 -10 -21 -10 -8 0 -12 5 -9 10 3 6 13 10 21 10 8 0 12 -4 9 -10z
m7250 -8 c6 -4 12 -17 12 -29 2 -21 1 -21 -18 -2 -28 28 -23 52 6 31z m-7147
-21 c10 -6 9 -10 -7 -14 -14 -3 -21 0 -21 9 0 16 9 18 28 5z m97 -20 c3 -5 1
-12 -5 -16 -5 -3 -10 1 -10 9 0 18 6 21 15 7z m7179 -7 c-10 -8 -13 -13 -7 -9
7 3 21 1 30 -4 17 -10 16 -10 -2 -11 l-20 -1 20 -9 c18 -8 19 -9 1 -9 -12 -1
-16 -6 -12 -16 3 -8 2 -14 -2 -14 -18 3 -32 -2 -32 -11 0 -5 12 -10 28 -10 24
-1 25 -2 10 -14 -23 -17 -79 -9 -71 10 4 10 0 12 -11 8 -12 -5 -15 1 -14 30 1
20 5 36 10 36 4 0 8 7 8 16 0 10 6 13 18 10 9 -3 24 -1 32 4 24 16 35 11 14
-6z m-7382 -12 c17 -17 -10 -15 -42 3 l-25 14 28 -3 c15 -2 33 -8 39 -14z
m7468 8 c0 -5 -5 -10 -11 -10 -5 0 -7 5 -4 10 3 6 8 10 11 10 2 0 4 -4 4 -10z
m-7262 -38 c4 -14 0 -15 -22 -6 -9 3 -16 10 -16 14 0 12 33 5 38 -8z m7002 -2
c0 -5 -8 -10 -17 -10 -15 0 -16 2 -3 10 19 12 20 12 20 0z m-119 -33 c-13 -13
-26 -3 -16 12 3 6 11 8 17 5 6 -4 6 -10 -1 -17z m153 13 c-15 -15 -84 -25 -84
-12 0 10 25 17 75 21 13 1 16 -2 9 -9z m-289 -19 c3 -5 1 -12 -5 -16 -5 -3
-10 -1 -10 5 0 6 -5 8 -12 4 -7 -4 -8 -3 -4 4 9 14 23 15 31 3z m283 -13 c-2
-6 -15 -12 -28 -13 -21 -2 -22 -1 -5 12 23 16 38 17 33 1z m-228 -32 c0 -8 -7
-16 -15 -20 -17 -6 -18 -4 -9 18 8 20 24 21 24 2z m-80 -6 c0 -5 -5 -10 -11
-10 -5 0 -7 5 -4 10 3 6 8 10 11 10 2 0 4 -4 4 -10z m420 -4 c0 -2 -7 -6 -15
-10 -8 -3 -15 -1 -15 4 0 6 7 10 15 10 8 0 15 -2 15 -4z m-542 -40 c-1 -2 -13
-9 -26 -15 -22 -12 -23 -11 -13 7 6 11 7 23 3 27 -4 4 4 2 16 -4 13 -7 22 -14
20 -15z m192 5 c0 -17 -18 -21 -24 -6 -3 9 0 15 9 15 8 0 15 -4 15 -9z m-6660
-11 c0 -5 -7 -7 -15 -4 -8 4 -15 8 -15 10 0 2 7 4 15 4 8 0 15 -4 15 -10z
m6410 -26 c0 -14 -5 -24 -11 -22 -6 2 -10 7 -10 11 1 4 1 14 1 22 0 8 5 15 10
15 6 0 10 -12 10 -26z m-1079 -261 c-7 -3 -22 -14 -32 -24 -11 -11 -25 -19
-31 -19 -7 0 1 11 17 25 17 13 37 24 45 24 12 0 12 -2 1 -6z m-101 -53 c0 -5
-5 -10 -11 -10 -5 0 -7 5 -4 10 3 6 8 10 11 10 2 0 4 -4 4 -10z m667 -82 c-3
-8 -6 -5 -6 6 -1 11 2 17 5 13 3 -3 4 -12 1 -19z m-173 -4 c9 -3 13 -10 10
-15 -3 -5 -10 -7 -15 -4 -5 4 -9 1 -9 -4 0 -6 7 -11 15 -11 8 0 15 -5 15 -10
0 -7 -6 -7 -19 0 -25 13 -34 27 -26 40 7 12 8 12 29 4z m-964 -108 c0 -17 -57
-39 -65 -26 -3 5 7 16 22 24 35 19 43 19 43 2z m-80 -36 c0 -5 -2 -10 -4 -10
-3 0 -8 5 -11 10 -3 6 -1 10 4 10 6 0 11 -4 11 -10z m456 -287 c-10 -10 -19 5
-10 18 6 11 8 11 12 0 2 -7 1 -15 -2 -18z m334 -29 c0 -8 -5 -12 -10 -9 -6 4
-8 11 -5 16 9 14 15 11 15 -7z m-697 -3 c4 -1 7 -6 7 -12 0 -6 -7 -9 -14 -6
-10 4 -13 1 -10 -7 3 -8 1 -17 -4 -20 -5 -3 -12 7 -14 23 -3 22 -1 28 11 26 9
-2 19 -4 24 -4z m-134 -22 c-14 -8 -29 -3 -29 11 0 4 9 6 21 3 15 -4 17 -8 8
-14z m81 1 c0 -11 -2 -20 -5 -20 -2 0 -9 9 -15 20 -9 16 -8 20 5 20 8 0 15 -9
15 -20z m-918 -142 c-7 -7 -12 -8 -12 -2 0 14 12 26 19 19 2 -3 -1 -11 -7 -17z
m-202 -38 c0 -5 -2 -10 -4 -10 -3 0 -8 5 -11 10 -3 6 -1 10 4 10 6 0 11 -4 11
-10z m-1560 -35 c0 -8 -2 -15 -4 -15 -2 0 -6 7 -10 15 -3 8 -1 15 4 15 6 0 10
-7 10 -15z m1520 -25 c0 -5 -5 -10 -11 -10 -5 0 -7 5 -4 10 3 6 8 10 11 10 2
0 4 -4 4 -10z m943 -80 c-3 -11 -7 -20 -9 -20 -2 0 -4 9 -4 20 0 11 4 20 9 20
5 0 7 -9 4 -20z m-513 -20 c0 -5 -7 -10 -15 -10 -8 0 -15 5 -15 10 0 6 7 10
15 10 8 0 15 -4 15 -10z m-114 -35 c-36 -19 -47 -19 -22 0 11 8 27 15 35 15 9
0 3 -7 -13 -15z m364 -261 c0 -8 5 -12 11 -9 6 4 13 -2 15 -12 4 -15 13 -18
42 -16 20 1 29 0 20 -3 -10 -3 -18 -10 -18 -15 0 -5 -9 -9 -20 -9 -11 0 -20
-4 -20 -9 0 -5 -14 -12 -31 -16 -30 -7 -42 0 -52 29 -2 5 -13 4 -25 -3 -20
-11 -22 -9 -20 14 1 14 8 25 15 25 7 0 13 7 13 15 0 24 20 17 21 -7 1 -20 3
-18 15 10 14 32 34 36 34 6z m-1065 -14 c3 -5 1 -10 -4 -10 -6 0 -11 5 -11 10
0 6 2 10 4 10 3 0 8 -4 11 -10z m1315 0 c0 -5 -4 -10 -10 -10 -5 0 -10 5 -10
10 0 6 5 10 10 10 6 0 10 -4 10 -10z m-1554 -17 c-3 -19 -20 -27 -41 -19 -22
8 -6 36 20 36 16 0 22 -5 21 -17z m1391 11 c-3 -3 -12 -4 -19 -1 -8 3 -5 6 6
6 11 1 17 -2 13 -5z m-1437 -52 c-7 -3 -19 3 -28 13 -16 15 -15 16 12 4 15 -7
23 -15 16 -17z m1520 18 c0 -5 -5 -10 -11 -10 -6 0 -9 -7 -5 -15 7 -18 -3 -45
-16 -45 -6 0 -8 14 -6 30 3 17 0 30 -6 31 -6 0 -2 4 9 9 27 12 35 12 35 0z
m-1120 -4 c0 -3 -4 -8 -10 -11 -5 -3 -10 -1 -10 4 0 6 5 11 10 11 6 0 10 -2
10 -4z m615 -5 c11 -5 28 -4 38 1 12 6 17 5 17 -6 0 -8 7 -16 16 -18 12 -2 17
-16 20 -48 2 -36 1 -40 -6 -22 -6 13 -15 20 -21 17 -6 -4 -13 2 -16 14 -4 17
-12 20 -44 17 -44 -4 -51 1 -42 32 6 24 8 25 38 13z m-105 -10 c0 -5 3 -17 6
-25 5 -12 2 -15 -12 -10 -14 4 -12 0 6 -15 l25 -21 -24 0 c-13 0 -30 8 -37 18
-12 15 -15 15 -23 2 -8 -12 -10 -10 -8 8 1 16 8 22 24 22 14 0 23 6 23 15 0 8
5 15 10 15 6 0 10 -4 10 -9z m-843 -12 c6 -6 26 -14 45 -18 18 -4 31 -11 28
-16 -3 -6 -9 -8 -15 -6 -5 3 -35 6 -65 7 -30 1 -60 3 -66 3 -7 1 -15 8 -18 17
-4 11 -2 15 6 11 7 -2 22 -1 33 4 28 11 39 11 52 -2z m873 1 c0 -5 -2 -10 -4
-10 -3 0 -8 5 -11 10 -3 6 -1 10 4 10 6 0 11 -4 11 -10z m225 -22 c13 -11 22
-25 19 -30 -3 -4 2 -8 10 -8 8 0 13 -6 11 -12 -2 -7 -6 -35 -9 -62 -4 -44 -12
-66 -19 -55 -1 2 -12 25 -25 52 -24 51 -28 72 -12 62 6 -3 10 0 10 8 0 8 -7
17 -15 21 -17 6 -21 46 -5 46 5 0 21 -10 35 -22z m-443 -50 c-11 -11 -32 -3
-32 12 0 4 9 6 21 3 13 -4 17 -9 11 -15z m49 -1 c-13 -13 -26 -3 -16 12 3 6
11 8 17 5 6 -4 6 -10 -1 -17z m-121 3 c0 -5 -5 -10 -11 -10 -5 0 -7 5 -4 10 3
6 8 10 11 10 2 0 4 -4 4 -10z m87 -42 c-3 -8 -6 -5 -6 6 -1 11 2 17 5 13 3 -3
4 -12 1 -19z m33 12 c0 -5 -2 -10 -4 -10 -3 0 -8 5 -11 10 -3 6 -1 10 4 10 6
0 11 -4 11 -10z m100 6 c0 -3 -4 -8 -10 -11 -5 -3 -10 -1 -10 4 0 6 5 11 10
11 6 0 10 -2 10 -4z m360 -96 c0 -5 -7 -10 -16 -10 -8 0 -12 5 -9 10 3 6 10
10 16 10 5 0 9 -4 9 -10z m30 -34 c0 -3 -4 -8 -10 -11 -5 -3 -10 -1 -10 4 0 6
5 11 10 11 6 0 10 -2 10 -4z m-30 -346 c0 -5 -4 -10 -10 -10 -5 0 -10 5 -10
10 0 6 5 10 10 10 6 0 10 -4 10 -10z m-32 -78 c3 -56 0 -65 -23 -86 -14 -13
-25 -29 -25 -35 0 -7 -6 -11 -12 -8 -19 6 -11 81 12 133 11 23 20 48 20 54 0
7 6 10 13 8 7 -3 13 -28 15 -66z m-461 6 c-3 -8 -6 -5 -6 6 -1 11 2 17 5 13 3
-3 4 -12 1 -19z m33 -33 c0 -14 -4 -25 -10 -25 -11 0 -14 33 -3 43 11 11 13 8
13 -18z m331 -73 c-6 -2 -11 -10 -11 -18 0 -13 -25 -19 -58 -15 -8 1 -16 -7
-19 -19 -5 -19 -6 -19 -19 -3 -7 10 -14 30 -14 46 0 22 4 27 25 27 14 0 25 -4
25 -10 0 -17 25 -6 33 15 8 20 9 20 23 1 13 -18 14 -17 16 20 l1 39 4 -40 c3
-23 0 -41 -6 -43z m-186 9 c-4 -23 -11 -41 -16 -41 -5 0 -9 4 -9 9 0 5 -3 22
-6 39 -5 24 -2 31 12 34 26 6 27 4 19 -41z m-965 -11 c0 -5 -8 -10 -17 -10
-15 0 -16 2 -3 10 19 12 20 12 20 0z m62 -16 c-5 -24 -8 -27 -20 -20 -14 8 -2
48 12 43 6 -2 9 -13 8 -23z m1500 -9 c4 -17 1 -25 -8 -25 -8 0 -14 11 -14 25
0 14 4 25 9 25 5 0 11 -11 13 -25z m-131 1 c5 3 9 -11 9 -31 0 -29 -3 -36 -15
-31 -10 4 -15 -1 -15 -14 0 -26 -30 -26 -37 0 -5 19 -6 19 -18 3 -11 -15 -13
-15 -24 6 -14 26 -8 51 13 51 7 0 16 7 20 15 4 12 11 13 31 5 15 -6 31 -8 36
-4z m-1461 -6 c0 -13 -11 -13 -30 0 -12 8 -11 10 8 10 12 0 22 -4 22 -10z
m1508 -48 c6 -18 -15 -14 -22 4 -4 10 -1 14 6 12 6 -2 14 -10 16 -16z m-2131
-278 c-3 -3 -12 -4 -19 -1 -8 3 -5 6 6 6 11 1 17 -2 13 -5z m-117 -52 c0 -4
-10 -16 -21 -26 -15 -13 -24 -15 -32 -7 -8 8 -8 11 1 11 7 0 12 7 12 15 0 8 9
15 20 15 11 0 20 -3 20 -8z m260 -26 c0 -11 -19 -15 -25 -6 -3 5 1 10 9 10 9
0 16 -2 16 -4z m-31 -48 c-9 -16 -7 -20 10 -25 12 -3 21 -11 21 -18 0 -19 -25
-36 -44 -29 -13 5 -16 0 -16 -25 0 -21 -5 -31 -16 -31 -8 0 -12 -5 -9 -10 5
-8 11 -7 21 1 12 10 18 9 32 -4 15 -16 14 -17 -25 -17 -37 0 -41 -3 -46 -30
-9 -42 -35 -40 -32 3 4 62 17 97 36 97 13 0 19 7 19 22 0 32 33 96 47 91 9 -4
10 -10 2 -25z m-379 -7 c0 -4 -11 -6 -25 -3 -14 2 -25 6 -25 8 0 2 11 4 25 4
14 0 25 -4 25 -9z m-105 -41 c3 -5 1 -10 -4 -10 -6 0 -11 5 -11 10 0 6 2 10 4
10 3 0 8 -4 11 -10z m1833 -12 c-6 -18 -28 -21 -28 -4 0 9 7 16 16 16 9 0 14
-5 12 -12z m-1911 -65 c-3 -10 -5 -4 -5 12 0 17 2 24 5 18 2 -7 2 -21 0 -30z
m2103 -83 c0 -6 -11 -9 -25 -7 -37 5 -42 17 -7 17 18 0 32 -5 32 -10z m30 0
c0 -5 -4 -10 -10 -10 -5 0 -10 5 -10 10 0 6 5 10 10 10 6 0 10 -4 10 -10z m58
-1 c-2 -6 -7 -10 -11 -10 -4 1 -14 1 -22 1 -8 0 -15 5 -15 10 0 6 12 10 26 10
14 0 24 -5 22 -11z"/>
<path d="M6102 1530 c0 -14 2 -19 5 -12 2 6 2 18 0 25 -3 6 -5 1 -5 -13z"/>
<path d="M6125 1520 c3 -5 8 -10 11 -10 2 0 4 5 4 10 0 6 -5 10 -11 10 -5 0
-7 -4 -4 -10z"/>
<path d="M9295 3880 c-8 -27 3 -44 19 -31 7 6 16 8 19 4 4 -3 7 0 7 8 0 8 -9
20 -19 26 -17 11 -21 9 -26 -7z"/>
<path d="M9354 3869 c-3 -6 -4 -11 -3 -12 2 -1 15 -8 28 -15 15 -9 27 -10 33
-4 6 6 -1 15 -21 25 -19 10 -33 12 -37 6z"/>
<path d="M9235 3850 c-4 -6 3 -10 14 -10 25 0 27 6 6 13 -8 4 -17 2 -20 -3z"/>
<path d="M8510 3740 c0 -5 5 -10 10 -10 6 0 10 5 10 10 0 6 -4 10 -10 10 -5 0
-10 -4 -10 -10z"/>
<path d="M8310 3470 c0 -5 5 -10 11 -10 5 0 7 5 4 10 -3 6 -8 10 -11 10 -2 0
-4 -4 -4 -10z"/>
<path d="M8061 3281 c-1 -19 2 -32 5 -28 3 3 17 2 30 -3 18 -7 22 -6 17 5 -3
8 -12 15 -19 15 -8 0 -19 10 -24 23 -8 20 -9 18 -9 -12z"/>
<path d="M7770 3209 c0 -5 5 -7 10 -4 6 3 10 8 10 11 0 2 -4 4 -10 4 -5 0 -10
-5 -10 -11z"/>
<path d="M8040 3199 c0 -5 5 -7 10 -4 6 3 10 8 10 11 0 2 -4 4 -10 4 -5 0 -10
-5 -10 -11z"/>
<path d="M7657 3183 c-4 -3 -7 -11 -7 -17 0 -6 5 -5 12 2 6 6 9 14 7 17 -3 3
-9 2 -12 -2z"/>
<path d="M7475 3070 c3 -5 8 -10 11 -10 2 0 4 5 4 10 0 6 -5 10 -11 10 -5 0
-7 -4 -4 -10z"/>
<path d="M7290 2950 c0 -11 5 -20 10 -20 6 0 10 9 10 20 0 11 -4 20 -10 20 -5
0 -10 -9 -10 -20z"/>
<path d="M6685 2630 c-3 -6 1 -7 9 -4 18 7 21 14 7 14 -6 0 -13 -4 -16 -10z"/>
<path d="M4105 2230 c-4 -6 7 -10 27 -10 25 0 29 3 18 10 -19 13 -37 13 -45 0z"/>
<path d="M4107 2150 c-3 -13 0 -20 8 -20 21 0 27 16 11 29 -11 9 -15 7 -19 -9z"/>
<path d="M4347 2063 c-11 -10 -8 -27 6 -47 12 -16 13 -14 14 18 1 34 -6 44
-20 29z"/>
<path d="M4380 2030 c0 -5 5 -10 10 -10 6 0 10 5 10 10 0 6 -4 10 -10 10 -5 0
-10 -4 -10 -10z"/>
<path d="M4010 2000 c0 -5 5 -10 10 -10 6 0 10 5 10 10 0 6 -4 10 -10 10 -5 0
-10 -4 -10 -10z"/>
<path d="M4256 1975 c4 -8 8 -15 10 -15 2 0 4 7 4 15 0 8 -4 15 -10 15 -5 0
-7 -7 -4 -15z"/>
<path d="M5305 1927 c-11 -9 -14 -16 -7 -21 6 -3 13 -2 17 4 4 6 11 8 16 5 5
-3 6 1 3 9 -7 19 -6 19 -29 3z"/>
<path d="M4821 1759 c-11 -12 -24 -18 -30 -14 -6 3 -11 2 -11 -3 0 -15 34 -25
38 -12 2 6 15 15 28 20 13 5 24 14 24 20 0 17 -28 11 -49 -11z"/>
<path d="M5040 1690 c-8 -5 -10 -10 -5 -10 6 0 17 5 25 10 8 5 11 10 5 10 -5
0 -17 -5 -25 -10z"/>
<path d="M4638 663 c7 -3 16 -2 19 1 4 3 -2 6 -13 5 -11 0 -14 -3 -6 -6z"/>
<path d="M4826 450 c-13 -4 -16 -9 -8 -14 7 -4 19 -3 28 2 21 12 5 22 -20 12z"/>
<path d="M5300 260 c0 -5 5 -10 10 -10 6 0 10 5 10 10 0 6 -4 10 -10 10 -5 0
-10 -4 -10 -10z"/>
<path d="M4308 233 c6 -2 18 -2 25 0 6 3 1 5 -13 5 -14 0 -19 -2 -12 -5z"/>
<path d="M4540 190 c0 -5 5 -10 10 -10 6 0 10 5 10 10 0 6 -4 10 -10 10 -5 0
-10 -4 -10 -10z"/>
<path d="M3730 157 c-27 -13 -33 -25 -33 -74 -1 -18 -4 -33 -9 -33 -4 0 -5 -7
-2 -15 4 -8 1 -15 -5 -15 -6 0 -11 -4 -11 -10 0 -15 29 -12 46 4 9 10 11 17 3
21 -7 5 -5 13 7 26 9 10 21 16 25 13 5 -3 9 18 9 45 0 28 -1 51 -2 50 -2 0
-14 -6 -28 -12z"/>
<path d="M5505 82 c-5 -4 -11 -15 -13 -24 -3 -17 16 -24 43 -18 6 1 28 2 50 1
25 0 35 2 27 8 -8 4 -23 8 -35 7 -24 -1 -48 14 -40 27 5 9 -19 9 -32 -1z"/>
<path d="M4263 45 c0 -10 11 -15 30 -15 29 0 33 9 5 14 -7 1 -18 5 -24 8 -6 4
-11 1 -11 -7z"/>
<path d="M3786 23 c-11 -11 -6 -23 9 -23 8 0 15 4 15 9 0 13 -16 22 -24 14z"/>
<path d="M5550 15 c0 -8 5 -15 10 -15 6 0 10 7 10 15 0 8 -4 15 -10 15 -5 0
-10 -7 -10 -15z"/>
</g>
</svg>
